<svg width="573" height="825" viewBox="0 0 573 825" fill="none" xmlns="http://www.w3.org/2000/svg">
<path fill-rule="evenodd" clip-rule="evenodd" d="M478.697 489.583C467.334 544.217 415.441 569.5 311.478 564.362C233.62 560.515 174.011 576.347 132.68 546.919C109.446 530.376 80.5145 496.277 85.3981 444.288C89.1698 404.135 139.605 368.655 181.978 336.419C204.394 319.366 230.927 304.352 245.479 280.097C253.009 267.545 265.506 246.514 271.918 221.357C284.791 170.854 287.452 186.86 294.771 211.415C301.032 232.421 312.868 259.313 313.326 260.298C330.922 298.045 338.352 293.312 365.348 322.436C397.22 356.819 448.315 377.01 470.304 416.98C480.148 434.875 482.877 469.49 478.697 489.583Z" fill="#FFD42A"/>
<path opacity="0.936073" fill-rule="evenodd" clip-rule="evenodd" d="M281.316 10.4102C281.16 62.5383 281.411 134.774 281.316 189.982C281.316 191.64 287.242 191.64 287.234 189.982C286.979 137.854 286.105 57.9921 287.234 10.4102C287.273 8.75209 281.321 8.75177 281.316 10.4102Z" fill="#FFD42A"/>
<path opacity="0.936073" fill-rule="evenodd" clip-rule="evenodd" d="M254.983 131.847C253.368 130.895 249.917 134.969 251.549 135.9C272.619 147.925 287.086 156.789 313.582 173.155C315.172 174.137 318.619 170.071 317.016 169.104C289.408 152.45 280.074 146.633 254.983 131.847Z" fill="#FFD42A"/>
<path opacity="0.936073" fill-rule="evenodd" clip-rule="evenodd" d="M250.54 35.3003C248.793 35.2952 248.721 40.296 250.472 40.2765C273.017 40.0254 288.86 40.3515 317.957 41.0569C319.702 41.0991 319.776 36.106 318.025 36.0823C287.947 35.675 277.666 35.3839 250.539 35.3003L250.54 35.3003Z" fill="#FFD42A"/>
<path opacity="0.936073" fill-rule="evenodd" clip-rule="evenodd" d="M220.659 69.4297C217.365 69.4228 217.254 74.4248 220.549 74.406C263.071 74.1627 292.955 74.4942 347.838 75.2101C351.131 75.2531 351.245 70.2597 347.95 70.2355C291.217 69.8176 271.824 69.5229 220.658 69.4297H220.659Z" fill="#FFD42A"/>
<path opacity="0.936073" fill-rule="evenodd" clip-rule="evenodd" d="M127.147 613.721C135.358 599.764 153.781 594.38 169.175 589.348C206.823 577.043 247.725 577.205 287.331 576.742C319.089 576.371 351.697 576.082 382.285 584.632C404.433 590.824 432.649 595.423 444.035 615.402C449.14 624.359 447.369 642.954 444.668 653.662C443.465 658.433 437.19 659.213 432.636 656.676C419.344 649.272 398.911 640.699 382.285 636.413C351.491 628.473 319.132 627.295 287.331 627.168C252.692 627.03 217.483 628.222 183.827 636.413C171.003 639.533 153.946 646.659 141.488 652.42C132.994 656.348 121.719 653.814 121.51 645.313C121.248 634.605 122.96 620.839 127.147 613.721Z" fill="#BAD8D8"/>
<path opacity="0.936073" d="M152.809 635.012C159.806 635.012 165.477 629.89 165.477 623.572C165.477 617.253 159.806 612.131 152.809 612.131C145.813 612.131 140.142 617.253 140.142 623.572C140.142 629.89 145.813 635.012 152.809 635.012Z" fill="#FFD42A"/>
<path opacity="0.936073" d="M198.734 618.065C205.73 618.065 211.401 612.943 211.401 606.625C211.401 600.306 205.73 595.184 198.734 595.184C191.737 595.184 186.066 600.306 186.066 606.625C186.066 612.943 191.737 618.065 198.734 618.065Z" fill="#FFD42A"/>
<path opacity="0.936073" d="M254.24 612.182C261.236 612.182 266.908 607.06 266.908 600.742C266.908 594.423 261.236 589.301 254.24 589.301C247.244 589.301 241.572 594.423 241.572 600.742C241.572 607.06 247.244 612.182 254.24 612.182Z" fill="#FFD42A"/>
<path opacity="0.936073" d="M311.091 612.182C318.088 612.182 323.759 607.06 323.759 600.742C323.759 594.423 318.088 589.301 311.091 589.301C304.095 589.301 298.424 594.423 298.424 600.742C298.424 607.06 304.095 612.182 311.091 612.182Z" fill="#FFD42A"/>
<path opacity="0.936073" d="M364.962 616.765C371.958 616.765 377.63 611.643 377.63 605.325C377.63 599.006 371.958 593.884 364.962 593.884C357.966 593.884 352.294 599.006 352.294 605.325C352.294 611.643 357.966 616.765 364.962 616.765Z" fill="#FFD42A"/>
<path opacity="0.936073" d="M415.092 633.484C422.088 633.484 427.759 628.362 427.759 622.044C427.759 615.726 422.088 610.604 415.092 610.604C408.095 610.604 402.424 615.726 402.424 622.044C402.424 628.362 408.095 633.484 415.092 633.484Z" fill="#FFD42A"/>
<path opacity="0.936073" fill-rule="evenodd" clip-rule="evenodd" d="M125.887 695.151C125.123 748.058 124.761 813.274 124.761 813.274H441.663C441.663 813.274 442.969 772.046 442.12 691.81C442.033 683.53 435.586 674.656 427.7 672.129C398.061 662.63 329.16 641.951 288.859 641.197C249.062 640.453 182.128 657.144 147.873 666.517C135.898 669.793 126.066 682.738 125.887 695.151Z" fill="#BAD8D8"/>
<path opacity="0.936073" d="M226.169 787.298C226.169 787.298 223.724 733.592 238.126 713.087C247.76 699.371 282.113 688.715 282.113 688.715" stroke="#676767" stroke-width="4.81636" stroke-linejoin="round"/>
<path opacity="0.936073" fill-rule="evenodd" clip-rule="evenodd" d="M281.77 686.958C280.682 686.702 280.558 690.161 280.558 690.161C280.558 690.161 289.17 692.712 298.982 696.965C308.794 701.217 319.754 707.333 324.16 713.563C330.977 723.2 334.066 741.754 335.177 757.753C336.288 773.753 335.593 787.203 335.593 787.203L339.268 787.393C339.268 787.393 339.976 773.747 338.848 757.5C337.719 741.252 334.924 722.408 327.165 711.438C321.817 703.876 310.485 697.941 300.445 693.59C290.404 689.238 286.683 688.113 281.77 686.958Z" fill="#676767"/>
<path opacity="0.936073" d="M354.518 786.504C354.518 786.504 352.841 749.683 362.715 735.626C369.32 726.222 392.872 718.916 392.872 718.916" stroke="#676767" stroke-width="3.30206" stroke-linejoin="round"/>
<path opacity="0.936073" fill-rule="evenodd" clip-rule="evenodd" d="M392.637 717.711C391.891 717.536 391.806 719.908 391.806 719.908C391.806 719.908 397.711 721.657 404.438 724.572C411.165 727.487 418.678 731.681 421.699 735.951C426.373 742.559 428.49 755.279 429.252 766.248C430.014 777.218 429.538 786.439 429.538 786.439L432.057 786.569C432.057 786.569 432.543 777.214 431.769 766.074C430.995 754.935 429.079 742.015 423.76 734.495C420.093 729.311 412.324 725.241 405.44 722.258C398.557 719.275 396.005 718.503 392.637 717.711Z" fill="#676767"/>
<path opacity="0.936073" d="M133.242 786.497C133.242 786.497 131.565 749.676 141.439 735.618C148.044 726.214 171.596 718.909 171.596 718.909" stroke="#676767" stroke-width="3.30206" stroke-linejoin="round"/>
<path opacity="0.936073" fill-rule="evenodd" clip-rule="evenodd" d="M171.361 717.704C170.615 717.529 170.53 719.9 170.53 719.9C170.53 719.9 176.435 721.649 183.162 724.565C189.889 727.48 197.402 731.673 200.423 735.944C205.097 742.551 207.214 755.272 207.976 766.241C208.738 777.21 208.262 786.432 208.262 786.432L210.782 786.562C210.782 786.562 211.267 777.206 210.493 766.067C209.719 754.928 207.803 742.008 202.484 734.488C198.817 729.303 191.048 725.234 184.164 722.251C177.281 719.268 174.729 718.496 171.361 717.704Z" fill="#676767"/>
<path opacity="0.936073" d="M242.398 777.252C242.398 777.252 240.722 740.432 250.595 726.374C257.2 716.97 280.753 709.664 280.753 709.664" stroke="#676767" stroke-width="3.30206" stroke-linejoin="round"/>
<path opacity="0.936073" fill-rule="evenodd" clip-rule="evenodd" d="M280.518 708.459C279.771 708.284 279.687 710.656 279.687 710.656C279.687 710.656 285.591 712.405 292.318 715.32C299.045 718.235 306.559 722.429 309.58 726.7C314.253 733.307 316.371 746.027 317.133 756.996C317.894 767.966 317.418 777.187 317.418 777.187L319.938 777.317C319.938 777.317 320.423 767.962 319.649 756.822C318.876 745.683 316.96 732.764 311.64 725.243C307.973 720.059 300.204 715.989 293.32 713.006C286.437 710.023 283.885 709.251 280.518 708.459Z" fill="#676767"/>
<path opacity="0.936073" d="M368.067 776.364C368.067 776.364 366.921 751.181 373.674 741.566C378.191 735.134 394.3 730.137 394.3 730.137" stroke="#676767" stroke-width="2.25846" stroke-linejoin="round"/>
<path opacity="0.936073" fill-rule="evenodd" clip-rule="evenodd" d="M394.139 729.313C393.629 729.193 393.571 730.816 393.571 730.816C393.571 730.816 397.609 732.012 402.21 734.006C406.811 736 411.95 738.868 414.016 741.789C417.213 746.308 418.661 755.008 419.182 762.511C419.703 770.013 419.378 776.32 419.378 776.32L421.101 776.409C421.101 776.409 421.433 770.01 420.904 762.392C420.374 754.773 419.064 745.936 415.426 740.793C412.918 737.247 407.604 734.464 402.896 732.423C398.188 730.383 396.443 729.855 394.139 729.313Z" fill="#676767"/>
<path opacity="0.936073" d="M143.64 777.265C143.64 777.265 142.493 752.081 149.247 742.466C153.764 736.034 169.873 731.038 169.873 731.038" stroke="#676767" stroke-width="2.25846" stroke-linejoin="round"/>
<path opacity="0.936073" fill-rule="evenodd" clip-rule="evenodd" d="M169.712 730.214C169.201 730.094 169.144 731.716 169.144 731.716C169.144 731.716 173.182 732.912 177.783 734.906C182.384 736.9 187.523 739.768 189.589 742.689C192.786 747.208 194.234 755.908 194.755 763.411C195.276 770.913 194.95 777.22 194.95 777.22L196.674 777.309C196.674 777.309 197.005 770.911 196.476 763.292C195.947 755.673 194.637 746.837 190.998 741.693C188.49 738.147 183.177 735.364 178.469 733.324C173.761 731.283 172.015 730.755 169.712 730.214Z" fill="#676767"/>
</svg>
